<svg viewBox="0 0 35 35" fill="none" xmlns="http://www.w3.org/2000/svg">
<path d="M34.56 16.9264V15.8724H27.8893C27.8685 15.6921 27.8408 15.5187 27.8061 15.3454L34.1509 13.279L33.825 12.2804L30.344 13.4107L30.1291 12.7381L33.61 11.6078L33.2772 10.6024L26.9324 12.6618C26.8561 12.5023 26.7868 12.3359 26.6966 12.1764L32.0845 8.25862L31.4674 7.40571L28.5065 9.55531L28.0904 8.98671L31.0513 6.83711L30.4272 5.98421L25.0394 9.90202C24.9145 9.77027 24.7897 9.64546 24.658 9.52064L28.5758 4.12584L27.7229 3.5087L25.5733 6.4696L25.0047 6.05355L27.1543 3.09265L26.2944 2.47551L22.3836 7.85644C22.2241 7.77323 22.0646 7.70389 21.8982 7.62068L23.9576 1.28282L22.9522 0.949983L21.8219 4.43095L21.1493 4.21599L22.2796 0.735025L21.281 0.409117L19.2216 6.74697C19.0413 6.7123 18.8679 6.69149 18.6876 6.66376V0H17.6336V3.65432H16.9264V0H15.8724V6.66376C15.6921 6.68456 15.5118 6.7123 15.3384 6.74697L13.2859 0.409117L12.2874 0.735025L13.4177 4.21599L12.745 4.43095L11.6148 0.949983L10.6093 1.28282L12.6618 7.62068C12.4954 7.69695 12.329 7.77323 12.1695 7.85644L8.25862 2.47551L7.40571 3.09265L9.55531 6.05355L8.98671 6.4696L6.83711 3.5087L5.98421 4.12584L9.89509 9.52064C9.76334 9.64546 9.63853 9.77027 9.51371 9.90202L4.12584 5.98421L3.5087 6.83711L6.4696 8.98671L6.05355 9.55531L3.09265 7.40571L2.47551 8.25862L7.85644 12.1764C7.77323 12.3359 7.69695 12.5023 7.62068 12.6618L1.28282 10.6093L0.949983 11.6148L4.43095 12.745L4.21599 13.4177L0.735025 12.2874L0.409117 13.2859L6.74697 15.3454C6.7123 15.5256 6.69149 15.699 6.66376 15.8793H0V16.9333H3.65432V17.6406H0V18.6946H6.66376C6.68456 18.8749 6.7123 19.0482 6.74697 19.2216L0.409117 21.281L0.735025 22.2795L4.21599 21.1493L4.43095 21.8219L0.949983 22.9522L1.28282 23.9576L7.62068 21.8982C7.69695 22.0577 7.76629 22.2241 7.85644 22.3836L2.47551 26.3014L3.09265 27.1543L6.05355 25.0047L6.4696 25.5733L3.5087 27.7229L4.12584 28.5758L9.52064 24.658C9.64546 24.7897 9.77028 24.9145 9.90203 25.0394L5.98421 30.4342L6.83711 31.0513L8.98671 28.0904L9.55531 28.5065L7.40571 31.4673L8.25862 32.0845L12.1764 26.6966C12.3359 26.7798 12.5023 26.8561 12.6618 26.9324L10.6024 33.2772L11.6078 33.61L12.7381 30.129L13.4107 30.344L12.2805 33.825L13.279 34.1509L15.3384 27.8061C15.5118 27.8408 15.6921 27.8616 15.8724 27.8893V34.56H16.9264V30.9057H17.6336V34.56H18.6876V27.8893C18.8679 27.8685 19.0482 27.8408 19.2216 27.8061L21.288 34.1509L22.2865 33.825L21.1562 30.344L21.8288 30.129L22.9591 33.61L23.9646 33.2772L21.9051 26.9324C22.0646 26.8561 22.231 26.7868 22.3905 26.6966L26.3014 32.0845L27.1612 31.4673L25.0116 28.5065L25.5802 28.0904L27.7298 31.0513L28.5827 30.4342L24.6649 25.0324C24.7967 24.9076 24.9215 24.7828 25.0463 24.651L30.448 28.5689L31.0652 27.716L28.1043 25.5664L28.5203 24.9978L31.4812 27.1474L32.0984 26.2875L26.7105 22.3766C26.7937 22.2171 26.87 22.0507 26.9463 21.8912L33.291 23.9507L33.617 22.9452L30.1429 21.815L30.3579 21.1423L33.8319 22.2726L34.1578 21.2741L27.82 19.2077C27.8546 19.0343 27.8754 18.8541 27.9032 18.6738H34.5739V17.6198H30.9196V16.9125H34.5739L34.56 16.9264ZM17.2661 24.8383C13.0917 24.8383 9.70787 21.4544 9.70787 17.28C9.70787 13.1056 13.0917 9.72173 17.2661 9.72173C21.4405 9.72173 24.8244 13.1056 24.8244 17.28C24.8244 21.4544 21.4405 24.8383 17.2661 24.8383Z" fill="white"/>
</svg>
