<svg width="24" height="24" viewBox="0 0 24 24" fill="none" xmlns="http://www.w3.org/2000/svg">
<path d="M23.9904 11.7544V11.0225H19.3598C19.3454 10.8973 19.3261 10.7769 19.302 10.6565L23.7064 9.22151L23.4801 8.52809L21.0638 9.313L20.9146 8.84591L23.3309 8.06099L23.0999 7.36276L18.6955 8.79294C18.6426 8.68218 18.5945 8.56661 18.5319 8.45586L22.272 5.73515L21.8436 5.14286L19.7882 6.63563L19.4994 6.24077L21.5548 4.74799L21.1215 4.1557L17.3815 6.8764C17.2948 6.78491 17.2082 6.69823 17.1167 6.61156L19.8363 2.86517L19.2443 2.4366L17.7521 4.49278L17.3574 4.20385L18.8496 2.14767L18.2527 1.7191L15.5379 5.45586C15.4272 5.39808 15.3165 5.34992 15.201 5.29214L16.6306 0.89085L15.9326 0.659711L15.148 3.07705L14.6811 2.92777L15.4657 0.510434L14.7726 0.284109L13.343 4.68539C13.2178 4.66132 13.0975 4.64687 12.9723 4.62761V0H12.2407V2.53772H11.7497V0H11.0181V4.62761C10.8929 4.64206 10.7677 4.66132 10.6474 4.68539L9.22262 0.284109L8.52948 0.510434L9.31408 2.92777L8.84717 3.07705L8.06258 0.659711L7.36462 0.89085L8.78941 5.29214C8.67389 5.34511 8.55836 5.39808 8.44765 5.45586L5.73285 1.7191L5.14079 2.14767L6.63297 4.20385L6.23827 4.49278L4.74609 2.4366L4.15403 2.86517L6.86883 6.61156C6.77738 6.69823 6.69074 6.78491 6.60409 6.8764L2.86402 4.1557L2.43562 4.74799L4.49098 6.24077L4.20217 6.63563L2.14681 5.14286L1.71841 5.73515L5.45367 8.45586C5.39591 8.56661 5.34296 8.68218 5.29001 8.79294L0.890493 7.36758L0.659446 8.06581L3.07581 8.85072L2.9266 9.31782L0.510229 8.53291L0.283995 9.22633L4.68351 10.6565C4.65945 10.7817 4.64501 10.9021 4.62575 11.0273H0V11.7592H2.5367V12.2504H0V12.9823H4.62575C4.64019 13.1075 4.65945 13.2279 4.68351 13.3483L0.283995 14.7785L0.510229 15.4719L2.9266 14.687L3.07581 15.1541L0.659446 15.939L0.890493 16.6372L5.29001 15.2071C5.34296 15.3178 5.3911 15.4334 5.45367 15.5441L1.71841 18.2648L2.14681 18.8571L4.20217 17.3644L4.49098 17.7592L2.43562 19.252L2.86402 19.8443L6.60891 17.1236C6.69555 17.2151 6.78219 17.3018 6.87365 17.3884L4.15403 21.1348L4.74609 21.5634L6.23827 19.5072L6.63297 19.7961L5.14079 21.8523L5.73285 22.2809L8.45247 18.5393C8.56318 18.5971 8.6787 18.6501 8.78941 18.703L7.35981 23.1092L8.05776 23.3403L8.84236 20.923L9.30927 21.0722L8.52467 23.4896L9.21781 23.7159L10.6474 19.3098C10.7677 19.3339 10.8929 19.3483 11.0181 19.3676V24H11.7497V21.4623H12.2407V24H12.9723V19.3676C13.0975 19.3531 13.2226 19.3339 13.343 19.3098L14.7774 23.7159L15.4705 23.4896L14.6859 21.0722L15.1528 20.923L15.9374 23.3403L16.6354 23.1092L15.2058 18.703C15.3165 18.6501 15.432 18.6019 15.5427 18.5393L18.2575 22.2809L18.8544 21.8523L17.3622 19.7961L17.7569 19.5072L19.2491 21.5634L19.8412 21.1348L17.1215 17.3836C17.213 17.297 17.2996 17.2103 17.3863 17.1188L21.136 19.8395L21.5644 19.2472L19.509 17.7544L19.7978 17.3596L21.8532 18.8523L22.2816 18.2552L18.5415 15.5393C18.5993 15.4286 18.6522 15.313 18.7052 15.2022L23.1095 16.6324L23.3357 15.9342L20.9242 15.1493L21.0734 14.6822L23.485 15.4671L23.7112 14.7737L19.3117 13.3387C19.3357 13.2183 19.3502 13.0931 19.3694 12.9679H24V12.236H21.4633V11.7448H24L23.9904 11.7544ZM11.9856 17.2488C9.08785 17.2488 6.73887 14.8989 6.73887 12C6.73887 9.10112 9.08785 6.7512 11.9856 6.7512C14.8833 6.7512 17.2323 9.10112 17.2323 12C17.2323 14.8989 14.8833 17.2488 11.9856 17.2488Z" fill="black"/>
</svg>
